<svg width="24" height="25" viewBox="0 -2 24 25" fill="none" xmlns="http://www.w3.org/2000/svg">
<mask id="path-1-outside-1_2911_162113" maskUnits="userSpaceOnUse" x="3" y="3.00001" width="19" height="18" fill="black">
<rect fill="white" x="3" y="3.00001" width="19" height="18"/>
<path fill-rule="evenodd" clip-rule="evenodd" d="M19.217 5.84854L18.3685 5.00001L16.392 6.97648C15.3066 6.40962 13.9801 6.00801 12.4 6.00801C7.03067 6.00801 4.58904 10.6457 4.58904 10.6457C3.78808 11.7041 3.81938 13.4866 4.58904 14.5704C4.58904 14.5704 5.19916 15.7292 6.48011 16.8884L4.792 18.5765L5.64053 19.425L19.217 5.84854ZM8.28598 15.0825L10.0938 13.2747C10.0327 13.063 10 12.8393 10 12.608C10 11.2825 11.0745 10.208 12.4 10.208C12.6313 10.208 12.855 10.2407 13.0667 10.3018L14.8738 8.49465C14.1511 8.05878 13.3042 7.80801 12.3987 7.80801C9.74807 7.80801 7.59934 9.95674 7.59934 12.6073C7.59934 13.5128 7.8501 14.3598 8.28598 15.0825ZM16.5226 10.1509L18.3335 8.34001C19.6052 9.49501 20.211 10.6457 20.211 10.6457C20.9806 11.7294 21.0119 13.5119 20.211 14.5704C20.211 14.5704 17.7693 19.208 12.4 19.208C10.8282 19.208 9.5073 18.8106 8.42509 18.2484L9.94225 16.7313C10.6608 17.1602 11.501 17.4067 12.3987 17.4067C15.0493 17.4067 17.198 15.2579 17.198 12.6073C17.198 11.7096 16.9515 10.8695 16.5226 10.1509ZM12.4 15.008C12.176 15.008 11.9592 14.9773 11.7536 14.9199L14.7119 11.9616C14.7693 12.1672 14.8 12.384 14.8 12.608C14.8 13.9335 13.7255 15.008 12.4 15.008Z"/>
</mask>
<path fill-rule="evenodd" clip-rule="evenodd" d="M19.217 5.84854L18.3685 5.00001L16.392 6.97648C15.3066 6.40962 13.9801 6.00801 12.4 6.00801C7.03067 6.00801 4.58904 10.6457 4.58904 10.6457C3.78808 11.7041 3.81938 13.4866 4.58904 14.5704C4.58904 14.5704 5.19916 15.7292 6.48011 16.8884L4.792 18.5765L5.64053 19.425L19.217 5.84854ZM8.28598 15.0825L10.0938 13.2747C10.0327 13.063 10 12.8393 10 12.608C10 11.2825 11.0745 10.208 12.4 10.208C12.6313 10.208 12.855 10.2407 13.0667 10.3018L14.8738 8.49465C14.1511 8.05878 13.3042 7.80801 12.3987 7.80801C9.74807 7.80801 7.59934 9.95674 7.59934 12.6073C7.59934 13.5128 7.8501 14.3598 8.28598 15.0825ZM16.5226 10.1509L18.3335 8.34001C19.6052 9.49501 20.211 10.6457 20.211 10.6457C20.9806 11.7294 21.0119 13.5119 20.211 14.5704C20.211 14.5704 17.7693 19.208 12.4 19.208C10.8282 19.208 9.5073 18.8106 8.42509 18.2484L9.94225 16.7313C10.6608 17.1602 11.501 17.4067 12.3987 17.4067C15.0493 17.4067 17.198 15.2579 17.198 12.6073C17.198 11.7096 16.9515 10.8695 16.5226 10.1509ZM12.4 15.008C12.176 15.008 11.9592 14.9773 11.7536 14.9199L14.7119 11.9616C14.7693 12.1672 14.8 12.384 14.8 12.608C14.8 13.9335 13.7255 15.008 12.4 15.008Z" fill="white"/>
<path d="M18.3685 5.00001L19.0756 4.2929L18.3685 3.58579L17.6613 4.2929L18.3685 5.00001ZM19.217 5.84854L19.9241 6.55564L20.6312 5.84854L19.9241 5.14143L19.217 5.84854ZM16.392 6.97648L15.929 7.86287L16.5799 8.20278L17.0991 7.68358L16.392 6.97648ZM4.58904 10.6457L5.38647 11.2491L5.43581 11.1839L5.4739 11.1115L4.58904 10.6457ZM4.58904 14.5704L5.4739 14.1045L5.4429 14.0456L5.40436 13.9913L4.58904 14.5704ZM6.48011 16.8884L7.18721 17.5955L7.9305 16.8522L7.15108 16.1469L6.48011 16.8884ZM4.792 18.5765L4.08489 17.8694L3.37779 18.5765L4.08489 19.2836L4.792 18.5765ZM5.64053 19.425L4.93342 20.1321L5.64053 20.8392L6.34763 20.1321L5.64053 19.425ZM8.28598 15.0825L7.42967 15.5989L8.08958 16.6931L8.99309 15.7896L8.28598 15.0825ZM10.0938 13.2747L10.8009 13.9818L11.2182 13.5645L11.0546 12.9974L10.0938 13.2747ZM13.0667 10.3018L12.7894 11.2626L13.3564 11.4262L13.7738 11.0089L13.0667 10.3018ZM14.8738 8.49465L15.5809 9.20176L16.4844 8.29825L15.3903 7.63834L14.8738 8.49465ZM18.3335 8.34001L19.0058 7.59976L18.3003 6.95897L17.6264 7.6329L18.3335 8.34001ZM16.5226 10.1509L15.8155 9.44381L15.2647 9.99462L15.6639 10.6635L16.5226 10.1509ZM20.211 10.6457L19.3261 11.1115L19.3571 11.1704L19.3956 11.2247L20.211 10.6457ZM20.211 14.5704L19.4135 13.9669L19.3642 14.0321L19.3261 14.1045L20.211 14.5704ZM8.42509 18.2484L7.71798 17.5413L6.75272 18.5066L7.96412 19.1358L8.42509 18.2484ZM9.94225 16.7313L10.4548 15.8726L9.78595 15.4733L9.23514 16.0242L9.94225 16.7313ZM11.7536 14.9199L11.0465 14.2128L9.83616 15.4231L11.4848 15.8832L11.7536 14.9199ZM14.7119 11.9616L15.6751 11.6928L15.2151 10.0442L14.0048 11.2545L14.7119 11.9616ZM17.6613 5.70711L18.5099 6.55564L19.9241 5.14143L19.0756 4.2929L17.6613 5.70711ZM17.0991 7.68358L19.0756 5.70711L17.6613 4.2929L15.6849 6.26937L17.0991 7.68358ZM16.8549 6.09008C15.6409 5.45606 14.1567 5.00801 12.4 5.00801V7.00801C13.8035 7.00801 14.9723 7.36318 15.929 7.86287L16.8549 6.09008ZM12.4 5.00801C9.40265 5.00801 7.22112 6.30878 5.81014 7.58527C5.10626 8.22205 4.58737 8.85793 4.24269 9.33702C4.0699 9.5772 3.93954 9.77985 3.85043 9.92614C3.80584 9.99934 3.77146 10.0586 3.74716 10.1016C3.735 10.1231 3.72536 10.1406 3.71821 10.1537C3.71463 10.1603 3.71167 10.1657 3.70934 10.1701C3.70817 10.1723 3.70716 10.1742 3.7063 10.1758C3.70587 10.1766 3.70548 10.1774 3.70513 10.178C3.70495 10.1783 3.70471 10.1788 3.70463 10.179C3.7044 10.1794 3.70419 10.1798 4.58904 10.6457C5.4739 11.1115 5.47371 11.1119 5.47352 11.1122C5.47347 11.1123 5.47329 11.1127 5.47319 11.1129C5.47298 11.1133 5.47282 11.1136 5.47269 11.1138C5.47242 11.1143 5.47231 11.1145 5.47233 11.1145C5.47238 11.1144 5.47301 11.1132 5.47422 11.111C5.47663 11.1066 5.48135 11.098 5.48839 11.0855C5.50248 11.0606 5.5258 11.0202 5.55846 10.9666C5.62385 10.8593 5.72619 10.6996 5.86619 10.505C6.14711 10.1146 6.57421 9.59103 7.1519 9.0684C8.30407 8.02606 10.028 7.00801 12.4 7.00801V5.00801ZM3.79162 10.0422C3.22981 10.7847 2.99525 11.7239 3.00007 12.604C3.00491 13.4852 3.24969 14.4115 3.77373 15.1494L5.40436 13.9913C5.15873 13.6455 5.00303 13.1386 5.00004 12.593C4.99705 12.0464 5.14732 11.5651 5.38647 11.2491L3.79162 10.0422ZM4.58904 14.5704C3.70419 15.0362 3.70429 15.0364 3.7044 15.0366C3.70444 15.0367 3.70455 15.0369 3.70463 15.0371C3.70478 15.0373 3.70495 15.0377 3.70513 15.038C3.70548 15.0387 3.70587 15.0394 3.7063 15.0402C3.70716 15.0418 3.70817 15.0437 3.70934 15.0459C3.71167 15.0503 3.71462 15.0557 3.7182 15.0623C3.72535 15.0754 3.73499 15.0929 3.74714 15.1144C3.77143 15.1574 3.80579 15.2166 3.85037 15.2898C3.93944 15.436 4.06973 15.6386 4.24245 15.8786C4.58696 16.3576 5.1056 16.9932 5.80913 17.6298L7.15108 16.1469C6.57366 15.6244 6.14678 15.101 5.86599 14.7107C5.72606 14.5162 5.62377 14.3566 5.55841 14.2493C5.52577 14.1957 5.50246 14.1554 5.48838 14.1305C5.48135 14.118 5.47663 14.1094 5.47422 14.105C5.47301 14.1028 5.47238 14.1016 5.47233 14.1015C5.47231 14.1015 5.47242 14.1017 5.47269 14.1022C5.47282 14.1024 5.47298 14.1028 5.47319 14.1031C5.47329 14.1033 5.4734 14.1035 5.47352 14.1038C5.47358 14.1039 5.47367 14.1041 5.4737 14.1041C5.4738 14.1043 5.4739 14.1045 4.58904 14.5704ZM5.49911 19.2836L7.18721 17.5955L5.773 16.1812L4.08489 17.8694L5.49911 19.2836ZM6.34763 18.7179L5.49911 17.8694L4.08489 19.2836L4.93342 20.1321L6.34763 18.7179ZM18.5099 5.14143L4.93342 18.7179L6.34763 20.1321L19.9241 6.55564L18.5099 5.14143ZM8.99309 15.7896L10.8009 13.9818L9.38669 12.5676L7.57887 14.3754L8.99309 15.7896ZM9 12.608C9 12.9341 9.04619 13.251 9.133 13.5519L11.0546 12.9974C11.0193 12.875 11 12.7446 11 12.608H9ZM12.4 9.20801C10.5222 9.20801 9 10.7302 9 12.608H11C11 11.8348 11.6268 11.208 12.4 11.208V9.20801ZM13.3439 9.34101C13.043 9.25419 12.7261 9.20801 12.4 9.20801V11.208C12.5366 11.208 12.667 11.2273 12.7894 11.2626L13.3439 9.34101ZM13.7738 11.0089L15.5809 9.20176L14.1667 7.78755L12.3595 9.5947L13.7738 11.0089ZM12.3987 8.80801C13.1171 8.80801 13.7861 9.00645 14.3573 9.35096L15.3903 7.63834C14.5161 7.1111 13.4912 6.80801 12.3987 6.80801V8.80801ZM8.59934 12.6073C8.59934 10.509 10.3004 8.80801 12.3987 8.80801V6.80801C9.19579 6.80801 6.59934 9.40446 6.59934 12.6073H8.59934ZM9.14229 14.566C8.79778 13.9948 8.59934 13.3258 8.59934 12.6073H6.59934C6.59934 13.6999 6.90243 14.7247 7.42967 15.5989L9.14229 14.566ZM17.6264 7.6329L15.8155 9.44381L17.2297 10.858L19.0406 9.04711L17.6264 7.6329ZM20.211 10.6457C21.0958 10.1798 21.0957 10.1796 21.0956 10.1794C21.0956 10.1793 21.0955 10.1791 21.0954 10.179C21.0952 10.1787 21.0951 10.1784 21.0949 10.178C21.0945 10.1774 21.0941 10.1766 21.0937 10.1758C21.0929 10.1742 21.0918 10.1723 21.0907 10.1702C21.0884 10.1658 21.0854 10.1604 21.0819 10.1539C21.0748 10.1408 21.0652 10.1235 21.0531 10.1021C21.029 10.0594 20.9949 10.0005 20.9506 9.9278C20.8621 9.78249 20.7327 9.58117 20.5612 9.34247C20.2191 8.86633 19.7042 8.23407 19.0058 7.59976L17.6612 9.08025C18.2344 9.60094 18.6583 10.1215 18.937 10.5094C19.0759 10.7028 19.1774 10.8613 19.2423 10.9678C19.2747 11.0211 19.2978 11.0611 19.3118 11.0858C19.3187 11.0982 19.3234 11.1067 19.3258 11.1111C19.327 11.1132 19.3276 11.1144 19.3277 11.1145C19.3277 11.1145 19.3276 11.1143 19.3273 11.1138C19.3272 11.1136 19.327 11.1133 19.3268 11.1129C19.3267 11.1127 19.3266 11.1125 19.3265 11.1122C19.3264 11.1121 19.3263 11.112 19.3263 11.1119C19.3262 11.1117 19.3261 11.1115 20.211 10.6457ZM21.0084 15.1738C21.5702 14.4313 21.8048 13.4922 21.7999 12.612C21.7951 11.7308 21.5503 10.8045 21.0263 10.0666L19.3956 11.2247C19.6413 11.5705 19.797 12.0774 19.8 12.623C19.803 13.1696 19.6527 13.6509 19.4135 13.9669L21.0084 15.1738ZM12.4 20.208C15.3973 20.208 17.5789 18.9072 18.9899 17.6307C19.6937 16.994 20.2126 16.3581 20.5573 15.879C20.7301 15.6388 20.8605 15.4362 20.9496 15.2899C20.9942 15.2167 21.0285 15.1574 21.0528 15.1144C21.065 15.0929 21.0746 15.0754 21.0818 15.0623C21.0854 15.0557 21.0883 15.0503 21.0907 15.0459C21.0918 15.0437 21.0928 15.0418 21.0937 15.0402C21.0941 15.0394 21.0945 15.0387 21.0949 15.038C21.095 15.0377 21.0953 15.0372 21.0954 15.0371C21.0956 15.0366 21.0958 15.0362 20.211 14.5704C19.3261 14.1045 19.3263 14.1041 19.3265 14.1038C19.3265 14.1037 19.3267 14.1033 19.3268 14.1031C19.327 14.1028 19.3272 14.1024 19.3273 14.1022C19.3276 14.1017 19.3277 14.1015 19.3277 14.1015C19.3276 14.1016 19.327 14.1028 19.3258 14.105C19.3234 14.1094 19.3186 14.118 19.3116 14.1305C19.2975 14.1554 19.2742 14.1958 19.2415 14.2494C19.1762 14.3567 19.0738 14.5164 18.9338 14.711C18.6529 15.1015 18.2258 15.625 17.6481 16.1476C16.4959 17.19 14.772 18.208 12.4 18.208V20.208ZM7.96412 19.1358C9.17465 19.7647 10.6526 20.208 12.4 20.208V18.208C11.0038 18.208 9.83995 17.8565 8.88606 17.361L7.96412 19.1358ZM9.23514 16.0242L7.71798 17.5413L9.13219 18.9555L10.6494 17.4384L9.23514 16.0242ZM12.3987 16.4067C11.6864 16.4067 11.0227 16.2116 10.4548 15.8726L9.42969 17.5899C10.2989 18.1088 11.3155 18.4067 12.3987 18.4067V16.4067ZM16.198 12.6073C16.198 14.7057 14.497 16.4067 12.3987 16.4067V18.4067C15.6016 18.4067 18.198 15.8102 18.198 12.6073H16.198ZM15.6639 10.6635C16.003 11.2314 16.198 11.8951 16.198 12.6073H18.198C18.198 11.5242 17.9001 10.5076 17.3812 9.63836L15.6639 10.6635ZM11.4848 15.8832C11.7771 15.9647 12.0843 16.008 12.4 16.008V14.008C12.2677 14.008 12.1413 13.9899 12.0223 13.9567L11.4848 15.8832ZM14.0048 11.2545L11.0465 14.2128L12.4607 15.6271L15.419 12.6687L14.0048 11.2545ZM15.8 12.608C15.8 12.2923 15.7567 11.9851 15.6751 11.6928L13.7487 12.2303C13.7819 12.3493 13.8 12.4757 13.8 12.608H15.8ZM12.4 16.008C14.2778 16.008 15.8 14.4858 15.8 12.608H13.8C13.8 13.3812 13.1732 14.008 12.4 14.008V16.008Z" fill="#774DCB" mask="url(#path-1-outside-1_2911_162113)"/>
</svg>
