<svg width="24" height="25" viewBox="0 -2 24 25" fill="none" xmlns="http://www.w3.org/2000/svg">
<mask id="path-1-outside-1_2911_162074" maskUnits="userSpaceOnUse" x="3" y="5.00001" width="19" height="16" fill="black">
<rect fill="white" x="3" y="5.00001" width="19" height="16"/>
<path fill-rule="evenodd" clip-rule="evenodd" d="M20.211 10.6377C20.9806 11.7214 21.0119 13.5039 20.211 14.5624C20.211 14.5624 17.7693 19.2 12.4 19.2C7.03067 19.2 4.58904 14.5624 4.58904 14.5624C3.81938 13.4786 3.78808 11.6961 4.58904 10.6377C4.58904 10.6377 7.03067 6.00001 12.4 6.00001C17.7693 6.00001 20.211 10.6377 20.211 10.6377ZM14.8 12.6C14.8 13.9255 13.7255 15 12.4 15C11.0745 15 10 13.9255 10 12.6C10 11.2745 11.0745 10.2 12.4 10.2C13.7255 10.2 14.8 11.2745 14.8 12.6ZM17.198 12.5993C17.198 15.2499 15.0493 17.3987 12.3987 17.3987C9.74807 17.3987 7.59934 15.2499 7.59934 12.5993C7.59934 9.94875 9.74807 7.80001 12.3987 7.80001C15.0493 7.80001 17.198 9.94875 17.198 12.5993Z"/>
</mask>
<path fill-rule="evenodd" clip-rule="evenodd" d="M20.211 10.6377C20.9806 11.7214 21.0119 13.5039 20.211 14.5624C20.211 14.5624 17.7693 19.2 12.4 19.2C7.03067 19.2 4.58904 14.5624 4.58904 14.5624C3.81938 13.4786 3.78808 11.6961 4.58904 10.6377C4.58904 10.6377 7.03067 6.00001 12.4 6.00001C17.7693 6.00001 20.211 10.6377 20.211 10.6377ZM14.8 12.6C14.8 13.9255 13.7255 15 12.4 15C11.0745 15 10 13.9255 10 12.6C10 11.2745 11.0745 10.2 12.4 10.2C13.7255 10.2 14.8 11.2745 14.8 12.6ZM17.198 12.5993C17.198 15.2499 15.0493 17.3987 12.3987 17.3987C9.74807 17.3987 7.59934 15.2499 7.59934 12.5993C7.59934 9.94875 9.74807 7.80001 12.3987 7.80001C15.0493 7.80001 17.198 9.94875 17.198 12.5993Z" fill="white"/>
<path d="M20.211 14.5624L19.4135 13.9589L19.3642 14.0241L19.3261 14.0965L20.211 14.5624ZM20.211 10.6377L19.3261 11.1035L19.3571 11.1624L19.3956 11.2167L20.211 10.6377ZM4.58904 14.5624L5.4739 14.0965L5.4429 14.0376L5.40436 13.9833L4.58904 14.5624ZM4.58904 10.6377L5.38647 11.2411L5.43581 11.1759L5.4739 11.1035L4.58904 10.6377ZM21.0084 15.1658C21.5702 14.4233 21.8048 13.4842 21.7999 12.604C21.7951 11.7228 21.5503 10.7966 21.0263 10.0586L19.3956 11.2167C19.6413 11.5625 19.797 12.0694 19.8 12.615C19.803 13.1616 19.6527 13.6429 19.4135 13.9589L21.0084 15.1658ZM12.4 20.2C15.3973 20.2 17.5789 18.8992 18.9899 17.6228C19.6937 16.986 20.2126 16.3501 20.5573 15.871C20.7301 15.6308 20.8605 15.4282 20.9496 15.2819C20.9942 15.2087 21.0285 15.1494 21.0528 15.1064C21.065 15.0849 21.0746 15.0674 21.0818 15.0543C21.0854 15.0477 21.0883 15.0423 21.0907 15.0379C21.0918 15.0357 21.0928 15.0338 21.0937 15.0322C21.0941 15.0314 21.0945 15.0307 21.0949 15.03C21.0951 15.0297 21.0953 15.0292 21.0954 15.0291C21.0956 15.0286 21.0958 15.0282 20.211 14.5624C19.3261 14.0965 19.3263 14.0961 19.3265 14.0958C19.3265 14.0957 19.3267 14.0953 19.3268 14.0951C19.327 14.0948 19.3272 14.0944 19.3273 14.0942C19.3276 14.0937 19.3277 14.0935 19.3277 14.0935C19.3276 14.0936 19.327 14.0948 19.3258 14.097C19.3234 14.1014 19.3186 14.11 19.3116 14.1225C19.2975 14.1474 19.2742 14.1878 19.2415 14.2414C19.1762 14.3487 19.0738 14.5084 18.9338 14.703C18.6529 15.0935 18.2258 15.617 17.6481 16.1396C16.4959 17.182 14.772 18.2 12.4 18.2V20.2ZM4.58904 14.5624C3.70419 15.0282 3.7044 15.0286 3.70463 15.0291C3.70471 15.0292 3.70495 15.0297 3.70513 15.03C3.70548 15.0307 3.70587 15.0314 3.7063 15.0322C3.70716 15.0338 3.70817 15.0357 3.70934 15.0379C3.71167 15.0423 3.71463 15.0477 3.71821 15.0543C3.72536 15.0674 3.735 15.0849 3.74716 15.1064C3.77146 15.1494 3.80584 15.2087 3.85043 15.2819C3.93954 15.4282 4.0699 15.6308 4.2427 15.871C4.58737 16.3501 5.10626 16.986 5.81014 17.6228C7.22112 18.8992 9.40266 20.2 12.4 20.2V18.2C10.028 18.2 8.30407 17.182 7.1519 16.1396C6.57421 15.617 6.14712 15.0935 5.86619 14.703C5.72619 14.5084 5.62385 14.3487 5.55846 14.2414C5.5258 14.1878 5.50248 14.1474 5.48839 14.1225C5.48135 14.11 5.47663 14.1014 5.47422 14.097C5.47301 14.0948 5.47238 14.0936 5.47233 14.0935C5.47231 14.0935 5.47242 14.0937 5.47269 14.0942C5.47282 14.0944 5.47298 14.0948 5.47319 14.0951C5.47329 14.0953 5.47347 14.0957 5.47352 14.0958C5.47371 14.0961 5.4739 14.0965 4.58904 14.5624ZM3.79162 10.0342C3.22981 10.7767 2.99525 11.7159 3.00007 12.596C3.00491 13.4772 3.24969 14.4035 3.77373 15.1414L5.40436 13.9833C5.15873 13.6375 5.00303 13.1306 5.00004 12.585C4.99705 12.0384 5.14732 11.5571 5.38647 11.2411L3.79162 10.0342ZM12.4 5.00001C9.40266 5.00001 7.22112 6.30079 5.81014 7.57727C5.10626 8.21406 4.58737 8.84994 4.2427 9.32902C4.0699 9.56921 3.93954 9.77186 3.85043 9.91814C3.80584 9.99134 3.77146 10.0506 3.74716 10.0936C3.735 10.1151 3.72536 10.1326 3.71821 10.1457C3.71463 10.1523 3.71167 10.1578 3.70934 10.1621C3.70817 10.1643 3.70716 10.1662 3.7063 10.1678C3.70587 10.1686 3.70548 10.1694 3.70513 10.17C3.70495 10.1704 3.70472 10.1708 3.70463 10.171C3.7044 10.1714 3.70419 10.1718 4.58904 10.6377C5.4739 11.1035 5.47371 11.1039 5.47352 11.1043C5.47347 11.1044 5.47329 11.1047 5.47319 11.1049C5.47298 11.1053 5.47282 11.1056 5.47269 11.1058C5.47242 11.1063 5.47231 11.1065 5.47233 11.1065C5.47238 11.1064 5.47301 11.1052 5.47422 11.103C5.47663 11.0986 5.48135 11.09 5.48839 11.0775C5.50248 11.0526 5.5258 11.0122 5.55846 10.9586C5.62385 10.8513 5.72619 10.6916 5.86619 10.497C6.14712 10.1066 6.57421 9.58303 7.1519 9.0604C8.30407 8.01806 10.028 7.00001 12.4 7.00001V5.00001ZM20.211 10.6377C21.0958 10.1718 21.0956 10.1714 21.0954 10.171C21.0953 10.1708 21.0951 10.1704 21.0949 10.17C21.0945 10.1694 21.0941 10.1686 21.0937 10.1678C21.0928 10.1662 21.0918 10.1643 21.0907 10.1621C21.0883 10.1578 21.0854 10.1523 21.0818 10.1457C21.0746 10.1326 21.065 10.1151 21.0528 10.0936C21.0285 10.0506 20.9942 9.99134 20.9496 9.91814C20.8605 9.77186 20.7301 9.56921 20.5573 9.32902C20.2126 8.84994 19.6937 8.21406 18.9899 7.57727C17.5789 6.30079 15.3973 5.00001 12.4 5.00001V7.00001C14.772 7.00001 16.4959 8.01806 17.6481 9.0604C18.2258 9.58303 18.6529 10.1066 18.9338 10.497C19.0738 10.6916 19.1762 10.8513 19.2415 10.9586C19.2742 11.0122 19.2975 11.0526 19.3116 11.0775C19.3186 11.09 19.3234 11.0986 19.3258 11.103C19.327 11.1052 19.3276 11.1064 19.3277 11.1065C19.3277 11.1065 19.3276 11.1063 19.3273 11.1058C19.3272 11.1056 19.327 11.1053 19.3268 11.1049C19.3267 11.1047 19.3265 11.1044 19.3265 11.1043C19.3263 11.1039 19.3261 11.1035 20.211 10.6377ZM12.4 16C14.2778 16 15.8 14.4778 15.8 12.6H13.8C13.8 13.3732 13.1732 14 12.4 14V16ZM9 12.6C9 14.4778 10.5222 16 12.4 16V14C11.6268 14 11 13.3732 11 12.6H9ZM12.4 9.20001C10.5222 9.20001 9 10.7222 9 12.6H11C11 11.8268 11.6268 11.2 12.4 11.2V9.20001ZM15.8 12.6C15.8 10.7222 14.2778 9.20001 12.4 9.20001V11.2C13.1732 11.2 13.8 11.8268 13.8 12.6H15.8ZM12.3987 18.3987C15.6016 18.3987 18.198 15.8022 18.198 12.5993H16.198C16.198 14.6977 14.497 16.3987 12.3987 16.3987V18.3987ZM6.59934 12.5993C6.59934 15.8022 9.19579 18.3987 12.3987 18.3987V16.3987C10.3004 16.3987 8.59934 14.6977 8.59934 12.5993H6.59934ZM12.3987 6.80001C9.19579 6.80001 6.59934 9.39646 6.59934 12.5993H8.59934C8.59934 10.501 10.3004 8.80001 12.3987 8.80001V6.80001ZM18.198 12.5993C18.198 9.39646 15.6016 6.80001 12.3987 6.80001V8.80001C14.497 8.80001 16.198 10.501 16.198 12.5993H18.198Z" fill="#774DCB" mask="url(#path-1-outside-1_2911_162074)"/>
</svg>
